<mxfile host="app.diagrams.net" modified="2022-11-16T19:09:36.349Z" agent="5.0 (Windows NT 10.0; Win64; x64) AppleWebKit/537.36 (KHTML, like Gecko) Chrome/107.0.0.0 Safari/537.36" etag="7Ih-GsPtj4-Gs1IkzFLF" version="20.5.3" type="github">
  <diagram id="efY2St_P9kEn5urG4u4p" name="Wiki structure layout">
    <mxGraphModel dx="1564" dy="892" grid="1" gridSize="10" guides="1" tooltips="1" connect="1" arrows="1" fold="1" page="1" pageScale="1" pageWidth="1700" pageHeight="1100" math="0" shadow="0">
      <root>
        <mxCell id="0" />
        <mxCell id="1" parent="0" />
        <mxCell id="WKqX6svEG4NjfyehOHaq-7" style="edgeStyle=orthogonalEdgeStyle;rounded=0;orthogonalLoop=1;jettySize=auto;html=1;exitX=1;exitY=0.5;exitDx=0;exitDy=0;entryX=0;entryY=0.5;entryDx=0;entryDy=0;" parent="1" source="WKqX6svEG4NjfyehOHaq-1" target="WKqX6svEG4NjfyehOHaq-2" edge="1">
          <mxGeometry relative="1" as="geometry" />
        </mxCell>
        <mxCell id="WKqX6svEG4NjfyehOHaq-11" style="edgeStyle=orthogonalEdgeStyle;rounded=0;orthogonalLoop=1;jettySize=auto;html=1;exitX=1;exitY=0.5;exitDx=0;exitDy=0;entryX=0;entryY=0.5;entryDx=0;entryDy=0;" parent="1" source="WKqX6svEG4NjfyehOHaq-1" target="WKqX6svEG4NjfyehOHaq-6" edge="1">
          <mxGeometry relative="1" as="geometry">
            <Array as="points">
              <mxPoint x="620" y="430" />
              <mxPoint x="620" y="510" />
            </Array>
          </mxGeometry>
        </mxCell>
        <mxCell id="WKqX6svEG4NjfyehOHaq-12" style="edgeStyle=orthogonalEdgeStyle;rounded=0;orthogonalLoop=1;jettySize=auto;html=1;exitX=1;exitY=0.5;exitDx=0;exitDy=0;entryX=0;entryY=0.5;entryDx=0;entryDy=0;" parent="1" source="WKqX6svEG4NjfyehOHaq-1" target="WKqX6svEG4NjfyehOHaq-9" edge="1">
          <mxGeometry relative="1" as="geometry">
            <Array as="points">
              <mxPoint x="820" y="430" />
              <mxPoint x="820" y="510" />
            </Array>
          </mxGeometry>
        </mxCell>
        <mxCell id="WKqX6svEG4NjfyehOHaq-18" style="edgeStyle=orthogonalEdgeStyle;rounded=0;orthogonalLoop=1;jettySize=auto;html=1;exitX=1;exitY=0.5;exitDx=0;exitDy=0;" parent="1" source="WKqX6svEG4NjfyehOHaq-1" target="WKqX6svEG4NjfyehOHaq-15" edge="1">
          <mxGeometry relative="1" as="geometry">
            <Array as="points">
              <mxPoint x="1030" y="430" />
              <mxPoint x="1030" y="510" />
            </Array>
          </mxGeometry>
        </mxCell>
        <mxCell id="WKqX6svEG4NjfyehOHaq-1" value="Table of Contents page" style="whiteSpace=wrap;html=1;aspect=fixed;" parent="1" vertex="1">
          <mxGeometry x="320" y="390" width="80" height="80" as="geometry" />
        </mxCell>
        <mxCell id="WKqX6svEG4NjfyehOHaq-5" style="edgeStyle=orthogonalEdgeStyle;rounded=0;orthogonalLoop=1;jettySize=auto;html=1;exitX=0.5;exitY=1;exitDx=0;exitDy=0;entryX=0;entryY=0.5;entryDx=0;entryDy=0;" parent="1" source="WKqX6svEG4NjfyehOHaq-2" target="WKqX6svEG4NjfyehOHaq-3" edge="1">
          <mxGeometry relative="1" as="geometry" />
        </mxCell>
        <mxCell id="WKqX6svEG4NjfyehOHaq-2" value="Section Page with ToC for &quot;modules&quot; of the Section" style="whiteSpace=wrap;html=1;aspect=fixed;" parent="1" vertex="1">
          <mxGeometry x="480" y="470" width="80" height="80" as="geometry" />
        </mxCell>
        <mxCell id="WKqX6svEG4NjfyehOHaq-3" value="&quot;Module&quot; page in the section" style="whiteSpace=wrap;html=1;aspect=fixed;" parent="1" vertex="1">
          <mxGeometry x="560" y="590" width="80" height="80" as="geometry" />
        </mxCell>
        <mxCell id="WKqX6svEG4NjfyehOHaq-14" style="edgeStyle=orthogonalEdgeStyle;rounded=0;orthogonalLoop=1;jettySize=auto;html=1;exitX=0.5;exitY=1;exitDx=0;exitDy=0;entryX=0;entryY=0.5;entryDx=0;entryDy=0;" parent="1" source="WKqX6svEG4NjfyehOHaq-6" target="WKqX6svEG4NjfyehOHaq-8" edge="1">
          <mxGeometry relative="1" as="geometry" />
        </mxCell>
        <mxCell id="WKqX6svEG4NjfyehOHaq-6" value="Section Page with ToC for &quot;modules&quot; of the Section" style="whiteSpace=wrap;html=1;aspect=fixed;" parent="1" vertex="1">
          <mxGeometry x="680" y="470" width="80" height="80" as="geometry" />
        </mxCell>
        <mxCell id="WKqX6svEG4NjfyehOHaq-8" value="&quot;Module&quot; page in the section" style="whiteSpace=wrap;html=1;aspect=fixed;" parent="1" vertex="1">
          <mxGeometry x="760" y="590" width="80" height="80" as="geometry" />
        </mxCell>
        <mxCell id="WKqX6svEG4NjfyehOHaq-13" style="edgeStyle=orthogonalEdgeStyle;rounded=0;orthogonalLoop=1;jettySize=auto;html=1;exitX=0.5;exitY=1;exitDx=0;exitDy=0;entryX=0;entryY=0.5;entryDx=0;entryDy=0;" parent="1" source="WKqX6svEG4NjfyehOHaq-9" target="WKqX6svEG4NjfyehOHaq-10" edge="1">
          <mxGeometry relative="1" as="geometry" />
        </mxCell>
        <mxCell id="WKqX6svEG4NjfyehOHaq-9" value="Section Page with ToC for &quot;modules&quot; of the Section" style="whiteSpace=wrap;html=1;aspect=fixed;" parent="1" vertex="1">
          <mxGeometry x="880" y="470" width="80" height="80" as="geometry" />
        </mxCell>
        <mxCell id="WKqX6svEG4NjfyehOHaq-10" value="&quot;Module&quot; page in the section" style="whiteSpace=wrap;html=1;aspect=fixed;" parent="1" vertex="1">
          <mxGeometry x="960" y="590" width="80" height="80" as="geometry" />
        </mxCell>
        <mxCell id="WKqX6svEG4NjfyehOHaq-17" style="edgeStyle=orthogonalEdgeStyle;rounded=0;orthogonalLoop=1;jettySize=auto;html=1;exitX=0.5;exitY=1;exitDx=0;exitDy=0;entryX=0;entryY=0.5;entryDx=0;entryDy=0;" parent="1" source="WKqX6svEG4NjfyehOHaq-15" target="WKqX6svEG4NjfyehOHaq-16" edge="1">
          <mxGeometry relative="1" as="geometry" />
        </mxCell>
        <mxCell id="WKqX6svEG4NjfyehOHaq-15" value="Section Page with ToC for &quot;modules&quot; of the Section" style="whiteSpace=wrap;html=1;aspect=fixed;" parent="1" vertex="1">
          <mxGeometry x="1080" y="470" width="80" height="80" as="geometry" />
        </mxCell>
        <mxCell id="WKqX6svEG4NjfyehOHaq-16" value="&quot;Module&quot; page in the section" style="whiteSpace=wrap;html=1;aspect=fixed;" parent="1" vertex="1">
          <mxGeometry x="1160" y="590" width="80" height="80" as="geometry" />
        </mxCell>
        <mxCell id="WKqX6svEG4NjfyehOHaq-19" value="Introduction page with lists of helpful pages/links" style="whiteSpace=wrap;html=1;aspect=fixed;" parent="1" vertex="1">
          <mxGeometry x="320" y="120" width="80" height="80" as="geometry" />
        </mxCell>
        <mxCell id="WKqX6svEG4NjfyehOHaq-22" value="Persona Page with content links" style="whiteSpace=wrap;html=1;aspect=fixed;" parent="1" vertex="1">
          <mxGeometry x="320" y="250" width="80" height="80" as="geometry" />
        </mxCell>
      </root>
    </mxGraphModel>
  </diagram>
</mxfile>
